<?xml version="1.0" standalone="no"?>
<!DOCTYPE svg PUBLIC "-//W3C//DTD SVG 20010904//EN"
 "http://www.w3.org/TR/2001/REC-SVG-20010904/DTD/svg10.dtd">
<svg version="1.0" xmlns="http://www.w3.org/2000/svg"
 width="700.000000pt" height="700.000000pt" viewBox="0 0 700.000000 700.000000"
 preserveAspectRatio="xMidYMid meet">
<metadata>
Created by potrace 1.14, written by Peter Selinger 2001-2017
</metadata>
<g transform="translate(0.000000,700.000000) scale(0.100000,-0.100000)"
fill="#000000" stroke="none">
<path d="M3462 6980 c-28 -26 -41 -59 -100 -237 l-46 -143 -176 -1 c-184 0
-233 -9 -255 -44 -25 -40 6 -79 142 -178 69 -51 137 -101 150 -112 l23 -20
-52 -160 c-69 -212 -68 -275 4 -275 39 0 51 7 211 122 l138 100 107 -78 c180
-131 187 -135 229 -141 34 -4 43 -2 55 16 23 33 14 89 -42 261 l-51 155 28 22
c15 12 82 63 149 112 126 93 162 137 143 173 -20 37 -49 43 -245 46 l-190 4
-47 141 c-25 78 -53 159 -61 179 -18 43 -52 78 -76 78 -9 0 -26 -9 -38 -20z"/>
<path d="M1891 6011 c-10 -10 -33 -64 -51 -119 l-33 -100 -118 -4 c-76 -2
-122 -7 -130 -15 -21 -21 5 -59 77 -110 117 -84 108 -69 84 -138 -12 -33 -27
-86 -35 -117 -11 -49 -11 -59 1 -69 20 -16 59 -4 118 39 28 21 65 47 81 59
l30 21 90 -64 c145 -104 175 -77 115 98 -17 50 -28 94 -23 97 82 56 183 142
183 156 0 36 -29 45 -145 45 l-113 0 -27 88 c-44 142 -67 170 -104 133z"/>
<path d="M4990 6009 c-13 -14 -37 -68 -54 -120 l-31 -94 -115 -5 c-121 -5
-140 -10 -140 -39 0 -24 24 -47 112 -110 l75 -53 -28 -92 c-41 -129 -42 -166
-5 -166 20 0 55 21 194 117 14 9 32 1 107 -53 64 -46 97 -64 115 -62 23 3 25
7 24 49 -1 25 -14 78 -28 118 -14 40 -26 76 -26 81 0 4 41 38 90 74 50 36 91
70 91 76 1 5 2 16 3 23 3 28 -30 36 -141 37 l-111 0 -23 68 c-25 74 -26 75
-28 97 0 8 -14 29 -30 47 l-29 32 -22 -25z"/>
<path d="M2785 5931 c-82 -21 -202 -56 -265 -78 l-114 -39 -2 -53 c-1 -29 -7
-64 -15 -79 -16 -33 -79 -95 -120 -119 -22 -13 -29 -23 -24 -38 42 -147 44
-174 13 -235 -30 -59 -74 -82 -145 -77 -42 3 -66 13 -122 50 l-70 47 -57 -40
c-86 -60 -157 -75 -216 -44 -39 20 -67 53 -68 77 0 23 -55 -21 -182 -145 -197
-194 -350 -389 -500 -638 -41 -69 -130 -246 -166 -330 -106 -252 -172 -490
-216 -790 -29 -195 -29 -561 0 -795 20 -159 96 -470 144 -590 4 -11 25 -65 46
-120 48 -124 161 -350 238 -473 209 -335 502 -644 829 -874 45 -32 87 -62 94
-68 7 -5 15 -10 19 -10 3 0 18 -9 32 -19 71 -50 406 -221 434 -221 8 0 18 -4
24 -8 10 -9 176 -70 259 -95 127 -39 320 -81 415 -92 19 -2 44 -6 55 -9 112
-27 649 -28 780 -1 11 2 38 6 60 9 290 36 674 162 963 317 380 202 743 513
999 854 194 259 334 524 443 840 65 189 101 344 134 575 28 200 29 602 1 780
-30 188 -31 197 -66 337 -53 217 -146 461 -250 660 -61 114 -159 276 -171 281
-4 2 -8 8 -8 13 0 8 -26 46 -77 114 -135 177 -282 335 -448 480 l-89 79 -9
-34 c-19 -75 -74 -120 -146 -120 -49 0 -79 12 -152 62 l-56 39 -66 -45 c-104
-70 -198 -72 -254 -8 -43 51 -48 123 -14 225 l18 56 -60 48 c-33 26 -69 60
-80 75 -23 31 -34 116 -18 145 10 19 5 23 -62 46 -70 26 -228 73 -271 81 -11
3 -54 12 -94 20 -40 9 -77 16 -82 16 -5 0 -6 -31 -3 -70 7 -88 -13 -149 -65
-188 -31 -23 -45 -27 -106 -27 -81 0 -111 14 -251 118 -44 33 -85 61 -91 64
-7 2 -62 -32 -122 -75 -126 -91 -190 -117 -263 -109 -110 13 -170 118 -141
245 l10 42 -32 -1 c-17 0 -98 -17 -181 -38z m901 -436 c50 -3 104 -8 120 -10
16 -3 43 -7 59 -10 17 -2 48 -7 70 -10 127 -19 396 -96 502 -145 24 -11 45
-20 49 -20 14 0 252 -125 327 -172 295 -183 581 -462 769 -749 50 -76 72 -113
142 -244 71 -130 155 -357 196 -530 55 -229 70 -358 71 -595 4 -542 -171
-1058 -509 -1510 -262 -349 -670 -656 -1082 -815 -174 -67 -394 -126 -535
-141 -27 -3 -53 -7 -56 -9 -9 -6 -228 -18 -319 -18 -110 0 -272 11 -335 23
-27 5 -67 12 -87 14 -197 29 -463 117 -683 228 -247 124 -442 265 -640 463
-178 177 -274 301 -407 525 -159 268 -282 638 -313 945 -4 33 -8 71 -11 85 -6
33 -7 407 -1 417 3 5 8 42 11 82 4 41 12 98 17 125 5 28 12 65 15 81 3 17 10
48 16 70 5 22 12 51 15 64 7 39 73 241 95 291 11 25 27 61 36 80 304 701 941
1237 1684 1419 184 45 271 58 458 67 69 4 126 8 127 9 3 2 71 -1 199 -10z"/>
<path d="M3317 5324 c-1 -2 -27 -6 -57 -9 -602 -66 -1172 -371 -1540 -825 -25
-30 -51 -61 -59 -70 -63 -66 -262 -415 -309 -540 -90 -240 -139 -437 -159
-647 -9 -99 -10 -345 0 -443 42 -446 213 -868 496 -1225 73 -93 267 -287 361
-362 414 -330 927 -512 1438 -509 l136 1 3 45 c11 150 72 265 180 340 l22 15
-44 74 c-77 130 -107 264 -101 450 8 218 65 393 191 586 212 326 533 444 955
351 224 -50 466 -202 597 -377 45 -58 97 -157 108 -202 4 -15 10 -29 14 -32 4
-2 26 35 49 83 44 95 74 164 70 166 -2 1 -28 10 -58 20 -203 69 -355 286 -406
579 -22 123 -14 329 16 442 48 180 133 331 241 428 58 53 169 117 203 117 22
0 21 10 -20 108 -117 284 -280 529 -499 748 -135 135 -188 180 -313 268 -270
191 -564 316 -887 380 -156 31 -247 39 -448 41 -97 1 -179 0 -180 -1z m1318
-979 c139 -36 265 -153 345 -320 69 -143 93 -247 96 -425 2 -112 -2 -166 -17
-238 -84 -405 -364 -660 -652 -595 -304 69 -505 471 -453 907 12 97 54 242 92
319 141 281 359 411 589 352z m-1661 -790 c208 -23 441 -147 612 -327 152
-161 243 -353 246 -524 1 -95 -9 -148 -45 -222 -171 -352 -747 -319 -1132 64
-140 140 -223 284 -261 455 -10 45 -11 159 -3 206 35 186 196 328 397 349 31
4 58 7 59 8 3 3 59 -1 127 -9z m-334 -1320 c96 -17 165 -41 265 -90 220 -108
389 -272 485 -470 60 -123 81 -202 81 -307 1 -410 -451 -577 -910 -336 -240
125 -439 353 -510 583 -25 80 -34 211 -19 282 39 180 186 314 373 340 22 3 41
6 43 8 5 4 156 -3 192 -10z"/>
</g>
</svg>
